<?xml version="1.0" encoding="utf-8"?>
<!-- Generator: Adobe Illustrator 27.3.1, SVG Export Plug-In . SVG Version: 6.00 Build 0)  -->
<svg version="1.1" id="Layer_1" xmlns="http://www.w3.org/2000/svg" xmlns:xlink="http://www.w3.org/1999/xlink" x="0px" y="0px"
	 viewBox="0 0 52.8 52.8" style="enable-background:new 0 0 52.8 52.8;" xml:space="preserve">
<style type="text/css">
	.st0{fill:#FFFFFF;}
</style>
<path class="st0" d="M43.5,9.8c-4.5-4.5-10.5-7-16.9-7C13.4,2.8,2.7,13.5,2.7,26.6c0,4.2,1.1,8.3,3.2,11.9L2.5,50.8l12.7-3.3
	c3.5,1.9,7.4,2.9,11.4,2.9h0c13.2,0,23.9-10.7,23.9-23.8C50.5,20.2,48,14.3,43.5,9.8z M26.6,46.4L26.6,46.4c-3.6,0-7.1-1-10.1-2.8
	l-0.7-0.4l-7.5,2l2-7.3l-0.5-0.7c-2-3.1-3-6.8-3-10.5c0-10.9,8.9-19.8,19.9-19.8c5.3,0,10.3,2.1,14,5.8c3.8,3.7,5.8,8.7,5.8,14
	C46.4,37.5,37.5,46.4,26.6,46.4z M37.5,31.6c-0.6-0.3-3.5-1.7-4.1-1.9c-0.5-0.2-0.9-0.3-1.3,0.3c-0.4,0.6-1.5,1.9-1.9,2.3
	c-0.3,0.4-0.7,0.4-1.3,0.1c-0.6-0.3-2.5-0.9-4.8-3c-1.8-1.6-3-3.5-3.3-4.1c-0.4-0.6,0-0.9,0.3-1.2c0.3-0.3,0.6-0.7,0.9-1
	c0.3-0.3,0.4-0.6,0.6-1c0.2-0.4,0.1-0.7-0.1-1s-1.3-3.2-1.8-4.4c-0.5-1.2-1-1-1.3-1c-0.3,0-0.7,0-1.1,0c-0.4,0-1,0.1-1.6,0.7
	c-0.5,0.6-2.1,2-2.1,5s2.1,5.8,2.4,6.2c0.3,0.4,4.2,6.4,10.2,9c1.4,0.6,2.5,1,3.4,1.3c1.4,0.5,2.7,0.4,3.8,0.2
	c1.1-0.2,3.5-1.4,4-2.8c0.5-1.4,0.5-2.6,0.3-2.8C38.5,32,38.1,31.9,37.5,31.6z"/>
</svg>
