<?xml version="1.0" encoding="UTF-8"?>
<svg id="Layer_1" data-name="Layer 1" xmlns="http://www.w3.org/2000/svg" viewBox="0 0 194.96 80.46">
  <g style="isolation: isolate;">
    <g style="isolation: isolate;">
      <path d="m48.36,22.43c-9.9,10.07-18.56,17.76-26,23.08,5.62,3.54,11.24,5.32,16.86,5.32,1.6,0,3.28-.15,5.06-.45,1.77-.3,3.35-.63,4.73-.97,1.38-.35,3.1-.91,5.15-1.69,2.05-.78,3.65-1.42,4.8-1.91,1.14-.5,2.92-1.27,5.32-2.33s4.12-1.83,5.15-2.3c.26-.13.41-.19.45-.19.22,0,.32.15.32.45,0,.22-.15.39-.45.52-.82.39-2.4,1.13-4.73,2.24-2.33,1.1-3.99,1.87-4.96,2.3-.97.43-2.45,1.08-4.44,1.94-1.99.87-3.59,1.48-4.8,1.85-1.21.37-2.66.79-4.34,1.26-1.69.48-3.27.81-4.77,1s-2.97.29-4.44.29c-5.92,0-11.71-1.86-17.38-5.58-6.66,4.45-11.65,6.68-14.98,6.68S0,52.86,0,50.7c0-1.95,1.19-4,3.57-6.16,2.38-2.16,4.84-3.24,7.39-3.24,3.11,0,6.38,1.08,9.79,3.24,3.15-2.46,6.74-5.61,10.76-9.43,4.02-3.83,7.24-7.03,9.66-9.63l3.7-3.89c0-.17-.22-.26-.65-.26-1.21,0-4.06-.49-8.56-1.46-4.5-.97-7.97-1.46-10.44-1.46-3.54,0-6.35.94-8.43,2.82-2.07,1.88-3.11,5.15-3.11,9.82,0,.65-.14,1.15-.42,1.49-.28.35-.55.52-.81.52s-.5-.22-.71-.65c-.22-.43-.32-.93-.32-1.49,0-2.64.38-4.88,1.13-6.74.76-1.86,1.84-3.27,3.24-4.25,1.4-.97,2.93-1.66,4.57-2.08,1.64-.41,3.52-.62,5.64-.62,2.85,0,6.86.44,12.03,1.33,5.16.89,8.44,1.33,9.82,1.33,1.47,0,2.2.17,2.2.52,0,.22-.56.89-1.69,2.01Zm-30.02,23.79c-2.98-1.95-5.86-2.92-8.62-2.92-2.03,0-3.92.68-5.67,2.04s-2.63,2.71-2.63,4.05c0,1.82,1.71,2.72,5.12,2.72,2.46,0,6.4-1.97,11.8-5.9Z" style="fill: #e0d5d8;"/>
      <path d="m113.39,41.95c-11.07,5.53-19.3,8.3-24.7,8.3-2.46,0-4.35-.51-5.67-1.52-1.32-1.01-1.98-2.78-1.98-5.28,0-.43-.15-.65-.45-.65-.91,0-3.13.74-6.68,2.21-3.54,1.47-5.6,2.2-6.16,2.2-.86,0-1.6-.19-2.2-.58-.6-.39-.91-.84-.91-1.36,0-1.77,1.57-3.18,4.7-4.21s6.21-1.56,9.24-1.56c.35,0,.75.09,1.2.26.45.17.68.32.68.45s-.24.19-.71.19c-2.72,0-5.04.28-6.94.84-1.9.56-3.19,1.16-3.86,1.78-.67.63-1,1.2-1,1.72,0,.39.26.58.78.58.91,0,3.04-.63,6.39-1.88,3.35-1.25,5.24-1.88,5.67-1.88.22,0,.8.36,1.75,1.07.95.71,1.43,1.31,1.43,1.78,0,1.99.35,3.37,1.04,4.15.69.78,1.79,1.17,3.31,1.17,1.9,0,4.22-.4,6.97-1.2,2.74-.8,5.15-1.64,7.23-2.53,2.07-.89,4.28-1.88,6.61-2.98,2.33-1.1,3.65-1.72,3.96-1.85.26-.13.41-.19.45-.19.22,0,.32.15.32.45,0,.22-.15.39-.45.52Z" style="fill: #e0d5d8;"/>
      <path d="m150.87,41.95c-.87.39-2.86,1.17-6,2.33s-7.22,2.46-12.25,3.89c-5.04,1.43-8.87,2.14-11.51,2.14s-4.02-.95-4.02-2.85c0-.73.39-1.92,1.17-3.57.78-1.64,1.17-2.61,1.17-2.92,0-.56-.3-.84-.91-.84-.56,0-1.15.1-1.75.29s-1.31.49-2.11.88c-.8.39-1.24.61-1.33.65-.17.09-.32.13-.45.13-.22,0-.32-.13-.32-.39,0-.22.15-.39.45-.52.17-.09.56-.26,1.17-.52.6-.26,1.1-.46,1.49-.62.39-.15.88-.3,1.46-.45.58-.15,1.11-.23,1.59-.23,2.16,0,3.24.71,3.24,2.14,0,.61-.39,1.73-1.17,3.37-.78,1.64-1.17,2.77-1.17,3.37,0,1.04.47,1.56,1.43,1.56,2.98,0,6.97-.74,11.96-2.21,4.99-1.47,8.95-2.8,11.86-3.99,2.92-1.19,4.81-2,5.67-2.43.26-.13.41-.19.45-.19.22,0,.32.15.32.45,0,.22-.15.39-.45.52Zm-28.46-13.03c0-.56.18-1.04.55-1.43.37-.39.79-.58,1.26-.58.43,0,.78.18,1.04.55.26.37.39.77.39,1.2,0,.74-.18,1.39-.55,1.98-.37.58-.81.88-1.33.88-.09,0-.23-.09-.42-.26-.19-.17-.4-.48-.62-.91-.22-.43-.32-.91-.32-1.43Z" style="fill: #e0d5d8;"/>
      <path d="m160.92,39.74c.26-.26.6-.66,1.04-1.2.43-.54.71-.88.84-1,1.82-4.54,4.14-9.14,6.97-13.81s4.64-7,5.41-7c.6,0,.91.61.91,1.82,0,.26-.13.66-.39,1.2-.26.54-.69,1.29-1.3,2.24-.61.95-1.2,1.87-1.78,2.76-.58.89-1.43,2.15-2.53,3.79-1.1,1.64-2.06,3.07-2.88,4.28-3.03,6.57-4.54,10.89-4.54,12.97,0,2.59,2.07,3.89,6.22,3.89,1.77,0,4.08-.41,6.94-1.23,2.85-.82,5.33-1.65,7.42-2.5s4.43-1.85,7-3.01c2.57-1.17,3.88-1.75,3.92-1.75.26-.13.41-.19.45-.19.22,0,.32.15.32.45,0,.22-.15.39-.45.52-12.36,5.75-21.48,8.62-27.36,8.62-4.54,0-6.81-1.21-6.81-3.63,0-1.6.45-3.76,1.36-6.48-4.11,4.54-8.39,6.81-12.84,6.81-2.07,0-3.11-.67-3.11-2.01,0-1.77,1.57-3.18,4.7-4.21,3.13-1.04,6.21-1.56,9.24-1.56.3,0,.71.09,1.23.26Zm-.65.65c-2.59.04-4.8.35-6.61.91-1.82.56-3.04,1.15-3.66,1.75-.63.61-.94,1.17-.94,1.69,0,.48.45.71,1.36.71,3.2,0,6.48-1.69,9.85-5.06Z" style="fill: #e0d5d8;"/>
    </g>
  </g>
</svg>